<?xml version="1.0" encoding="utf-8"?>
<!-- Generator: Adobe Illustrator 25.2.1, SVG Export Plug-In . SVG Version: 6.00 Build 0)  -->
<svg version="1.1" id="Layer_1" xmlns="http://www.w3.org/2000/svg" xmlns:xlink="http://www.w3.org/1999/xlink" x="0px" y="0px"
	 viewBox="0 0 282.4 127.6" style="enable-background:new 0 0 282.4 127.6;" xml:space="preserve">
<style type="text/css">
	.st0{fill:#FFFFFF;}
	.st1{fill:none;}
</style>
<g>
	<path class="st0" d="M82.5,34.9V75h-48V63.2l23.3,0V19.8l-23.3,0V0h13.1C66.9,0,82.5,15.6,82.5,34.9z M14.4,63.2l0-43.5l12.7,0V0H0
		v127.6h0c14.9,0,27-12.1,27-27V63.2L14.4,63.2z"/>
	<rect x="15.8" y="21.4" class="st0" width="40.3" height="40.3"/>
</g>
<g>
	<path class="st0" d="M140.3,127.4v-2.1h-13v-21.1h-2.5v23.2H140.3z M76.3,127.4l8-10.9h-1l8,10.9h2.9l-9.5-12.9v1.7l8.9-12.1h-2.7
		l-7.5,10.3l1.1,0l-7.5-10.2H74l9,12.2v-1.9l-9.5,12.9H76.3z M66.6,104.1h-2.5v23.2h2.5V104.1z M40.6,105.1l-1.1,1.2h7.3
		c2.3,0,4.1,0.5,5.3,1.5c1.2,1,1.8,2.5,1.8,4.3c0,1.8-0.6,3.3-1.8,4.3c-1.2,1-3,1.5-5.3,1.5h-7.3l1.1,1.2V105.1z M40.6,127.4v-8.5
		l-1.1,1.2h7.3c2,0,3.7-0.3,5.1-1s2.5-1.6,3.3-2.7c0.8-1.2,1.1-2.6,1.1-4.2c0-1.7-0.4-3.1-1.1-4.3c-0.8-1.2-1.9-2.1-3.3-2.7
		c-1.4-0.6-3.1-0.9-5.1-0.9h-8.7v23.2H40.6z"/>
	<polygon class="st0" points="116.6,125.2 116.6,127.4 100.2,127.4 100.2,104.1 116.1,104.1 116.1,106.3 102.6,106.3 102.6,114.5 
		114.6,114.5 114.6,116.6 102.6,116.6 102.6,125.2 	"/>
	<polygon class="st0" points="282.4,125.2 282.4,127.4 266,127.4 266,104.1 281.9,104.1 281.9,106.3 268.4,106.3 268.4,114.5 
		280.4,114.5 280.4,116.6 268.4,116.6 268.4,125.2 	"/>
	<polygon class="st0" points="252.8,127.4 252.8,106.3 261,106.3 261,104.1 242.2,104.1 242.2,106.3 250.4,106.3 250.4,127.4 	"/>
	<polygon class="st0" points="237.8,121.2 237.1,119.2 223.6,119.2 222.9,121.2 	"/>
	<polygon class="st0" points="221.3,127.4 231,105.6 230,105.6 239.8,127.4 242.4,127.4 231.7,104.1 229.3,104.1 218.7,127.4 	"/>
	<polygon class="st0" points="210.7,127.4 210.7,106.3 218.8,106.3 218.8,104.1 200,104.1 200,106.3 208.2,106.3 208.2,127.4 	"/>
	<path class="st0" d="M194.1,126.7c1.3-0.6,2.2-1.4,2.8-2.3c0.6-1,0.9-2,0.9-3.1c0-1.2-0.3-2.2-0.8-3c-0.5-0.8-1.2-1.4-2.1-1.8
		c-0.9-0.5-1.8-0.8-2.8-1.1c-1-0.3-2-0.6-3-0.8s-2-0.5-2.8-0.8c-0.9-0.3-1.5-0.7-2.1-1.3c-0.5-0.6-0.8-1.3-0.8-2.2
		c0-0.8,0.2-1.5,0.6-2.1s1.1-1.1,2-1.5c0.9-0.4,2.1-0.6,3.5-0.6c1,0,2.1,0.2,3.2,0.5c1.1,0.3,2.2,0.8,3.2,1.5l0.8-2
		c-0.9-0.6-2-1.1-3.3-1.5s-2.6-0.5-3.9-0.5c-2,0-3.6,0.3-4.8,0.9s-2.2,1.4-2.8,2.3c-0.6,1-0.9,2-0.9,3.2c0,1.2,0.3,2.2,0.8,3
		c0.5,0.8,1.2,1.4,2.1,1.8s1.8,0.8,2.8,1.1c1,0.3,2,0.5,3.1,0.8s1.9,0.5,2.8,0.8c0.8,0.3,1.5,0.8,2,1.3s0.8,1.3,0.8,2.2
		c0,0.8-0.2,1.4-0.6,2.1c-0.4,0.6-1.1,1.1-2,1.5c-0.9,0.4-2.1,0.5-3.6,0.5c-1.5,0-3-0.3-4.4-0.8c-1.4-0.5-2.5-1.2-3.3-2l-1,1.9
		c0.9,0.9,2.1,1.6,3.7,2.2c1.6,0.6,3.2,0.8,5,0.8C191.2,127.6,192.8,127.3,194.1,126.7"/>
	<polygon class="st0" points="162.2,106.3 175.7,106.3 175.7,104.1 159.8,104.1 159.8,127.4 176.2,127.4 176.2,125.2 162.2,125.2 	
		"/>
	<rect x="161.9" y="114.5" class="st0" width="12.3" height="2.1"/>
	<rect x="42.2" y="105.8" class="st1" width="223" height="21.6"/>
</g>
</svg>
