<?xml version="1.0" encoding="utf-8"?>
<!-- Generator: Adobe Illustrator 25.2.1, SVG Export Plug-In . SVG Version: 6.00 Build 0)  -->
<svg version="1.1" id="Layer_1" xmlns="http://www.w3.org/2000/svg" xmlns:xlink="http://www.w3.org/1999/xlink" x="0px" y="0px"
	 viewBox="0 0 282.2 128.2" style="enable-background:new 0 0 282.2 128.2;" xml:space="preserve">
<style type="text/css">
	.st0{fill:#FFFFFF;}
	.st1{fill:none;}
</style>
<g>
	<path class="st0" d="M140.1,128v-2.1h-13v-21.1h-2.5V128H140.1z M76.1,128l8-10.9h-1l8,10.9h2.9l-9.5-12.9v1.7l8.9-12.1h-2.7
		L83.1,115l1.1,0l-7.5-10.2h-2.8l9,12.2v-1.9L73.3,128H76.1z M66.4,104.7H64V128h2.5V104.7z M40.5,105.7l-1.1,1.2h7.3
		c2.3,0,4.1,0.5,5.3,1.5c1.2,1,1.8,2.5,1.8,4.3c0,1.8-0.6,3.3-1.8,4.3c-1.2,1-3,1.5-5.3,1.5h-7.3l1.1,1.2V105.7z M40.5,128v-8.5
		l-1.1,1.2h7.3c2,0,3.7-0.3,5.1-1c1.4-0.6,2.5-1.6,3.3-2.7c0.8-1.2,1.1-2.6,1.1-4.2c0-1.7-0.4-3.1-1.1-4.3c-0.8-1.2-1.9-2.1-3.3-2.7
		s-3.1-0.9-5.1-0.9H38V128H40.5z"/>
	<polygon class="st0" points="116.4,125.8 116.4,128 100,128 100,104.7 115.9,104.7 115.9,106.8 102.4,106.8 102.4,115.1 
		114.4,115.1 114.4,117.2 102.4,117.2 102.4,125.8 	"/>
	<polygon class="st0" points="282.2,125.8 282.2,128 265.8,128 265.8,104.7 281.7,104.7 281.7,106.9 268.2,106.9 268.2,115.1 
		280.3,115.1 280.3,117.2 268.2,117.2 268.2,125.8 	"/>
	<polygon class="st0" points="252.7,128 252.7,106.9 260.8,106.9 260.8,104.7 242,104.7 242,106.9 250.2,106.9 250.2,128 	"/>
	<polygon class="st0" points="237.7,121.8 236.9,119.8 223.4,119.8 222.7,121.8 	"/>
	<polygon class="st0" points="221.1,128 230.8,106.2 229.8,106.2 239.6,128 242.2,128 231.6,104.7 229.1,104.7 218.5,128 	"/>
	<polygon class="st0" points="210.5,128 210.5,106.9 218.6,106.9 218.6,104.7 199.9,104.7 199.9,106.9 208,106.9 208,128 	"/>
	<path class="st0" d="M193.9,127.3c1.3-0.6,2.2-1.4,2.8-2.3s0.9-2,0.9-3.1c0-1.2-0.3-2.2-0.8-3s-1.2-1.4-2.1-1.8
		c-0.9-0.5-1.8-0.8-2.8-1.1c-1-0.3-2-0.6-3-0.8c-1-0.2-2-0.5-2.8-0.8c-0.9-0.3-1.5-0.7-2.1-1.3c-0.5-0.6-0.8-1.3-0.8-2.2
		c0-0.8,0.2-1.5,0.6-2.1c0.4-0.6,1.1-1.1,2-1.5c0.9-0.4,2.1-0.6,3.5-0.6c1,0,2.1,0.2,3.2,0.5c1.1,0.3,2.2,0.8,3.2,1.5l0.8-2
		c-0.9-0.6-2-1.1-3.3-1.5c-1.3-0.4-2.6-0.5-3.9-0.5c-2,0-3.6,0.3-4.8,0.9c-1.3,0.6-2.2,1.4-2.8,2.3c-0.6,1-0.9,2-0.9,3.2
		c0,1.2,0.3,2.2,0.8,3c0.5,0.8,1.2,1.4,2.1,1.8c0.9,0.5,1.8,0.8,2.8,1.1c1,0.3,2,0.5,3.1,0.8s1.9,0.5,2.8,0.8c0.8,0.3,1.5,0.8,2,1.3
		c0.5,0.6,0.8,1.3,0.8,2.2c0,0.8-0.2,1.4-0.6,2.1c-0.4,0.6-1.1,1.1-2,1.5c-0.9,0.4-2.1,0.5-3.6,0.5c-1.5,0-3-0.3-4.4-0.8
		c-1.4-0.5-2.5-1.2-3.3-2l-1,1.9c0.9,0.9,2.1,1.6,3.7,2.2c1.6,0.6,3.2,0.8,5,0.8C191,128.2,192.6,127.9,193.9,127.3"/>
	<polygon class="st0" points="162,106.9 175.5,106.9 175.5,104.7 159.6,104.7 159.6,128 176,128 176,125.8 162,125.8 	"/>
	<rect x="161.8" y="115.1" class="st0" width="12.3" height="2.1"/>
	<rect x="42" y="106.4" class="st1" width="223" height="21.6"/>
</g>
<image style="overflow:visible;" width="345" height="534" xlink:href="PNG_300ppi_1000px/4.PNG_P_300PPI-01.png"  transform="matrix(0.24 0 0 0.24 0 0)">
</image>
</svg>
